<?xml version="1.0" encoding="utf-8"?>
<!-- Generator: Adobe Illustrator 22.0.0, SVG Export Plug-In . SVG Version: 6.00 Build 0)  -->
<svg version="1.1" id="Capa_1" xmlns="http://www.w3.org/2000/svg" xmlns:xlink="http://www.w3.org/1999/xlink" x="0px" y="0px"
	 viewBox="0 0 595.3 841.9" style="enable-background:new 0 0 595.3 841.9;" xml:space="preserve">
<style type="text/css">
	.st0{fill:#FFFFFF;}
</style>
<g>
	<path class="st0" d="M192.4,204.9c-14.9-6.8-13.6-28.7-15.9-40.2c-2.4-11.7-3.8-23.7-2.2-36.1c4.4-34,36.4-51.9,66.6-40.3
		C257,94.6,273,99.8,290.4,95c7.2-2,13.9-5.9,21.1-7.5c13.1-2.8,26.4-4.5,39.2,2.1c12.5,6.5,20.6,16.8,24.1,30.2
		c7.5,28.7,0.1,55.5-12,81.4c-0.4,0.9-1.1,2.2-2.3,3.6c-4.2-8.5-6-17.9-10.2-25.8c-4-7.4-9.9-12.6-15.3-18.5c-1.6-1.8-4-3-4.3-5.7
		c-2.4-17.9-15.2-26.2-30.4-30.9c-22-6.9-43.6-6-63.6,6.9c-8.2,5.3-14.6,12.2-15.1,22.7c-0.1,2.8-1.9,4.4-3.7,6
		c-7.7,7-14.3,14.9-18.6,24.4C197.1,188.5,195.2,197.8,192.4,204.9"/>
	<path class="st0" d="M354.2,207.8c-2.2-9.2-6.2-17.2-10.3-25.7c-9.6-20-26.1-28.8-45-36.3c-1.4,9.9-1,16.7,8.7,22.8
		c19.6,12.2,28.8,35.2,20.9,60.8c-6,19.4-22.4,28.2-39.3,32.5c-13.9,3.5-29.7,1.7-43.4-6.4c-22.9-13.4-31.8-38.6-22.2-63
		c4.9-12.3,13.9-20.5,24.4-27.6c4.1-2.8,7-13.5,3.9-16.5c-4.2-4-6.4,2.7-10,3.2c-1.8,0.3-3.5,1.3-5.3,2c-30.3,13.5-45,48-39.7,77
		c6.1,32.9,27,53.9,59.3,62.1c30.9,7.8,58.1-1.1,79.5-24.2"/>
	<path class="st0" d="M326,212.9c0-11.3-4-20.1-9.5-28.6c-2.2-3.4-4.5-3.7-7.3-1.6c-5.3,3.9-11.5,5.5-17.8,6
		c-16.7,1.3-33.7,4.1-49.1-5.9c-3.5-2.2-5.8-2.3-8.3,2.1c-3.7,6.4-6.7,12.9-8.3,20.1c-4.2,20,5,33.5,24.8,36.9
		c5.4,0.9,10.7,1.2,16.1,1.3c13.8,0.3,38.7-1.4,41.2-2.8C326,234.4,326,212.9,326,212.9"/>
	<path class="st0" d="M293.3,153.9c0,10-7.6,17.6-17.4,17.5c-10.1,0-18-7.5-18-17.1c-0.1-10.1,8.1-18.3,18.1-18.1
		C285.9,136.5,293.3,144,293.3,153.9"/>
	<path class="st0" d="M354.2,207.8c0,0,9.3,30.3-18.5,60.7"/>
</g>
</svg>
