<?xml version="1.0" encoding="utf-8"?>
<!-- Generator: Adobe Illustrator 25.2.0, SVG Export Plug-In . SVG Version: 6.00 Build 0)  -->
<svg version="1.1" id="Capa_1" xmlns="http://www.w3.org/2000/svg" xmlns:xlink="http://www.w3.org/1999/xlink" x="0px" y="0px"
	 viewBox="0 0 595.28 841.89" style="enable-background:new 0 0 595.28 841.89;" xml:space="preserve">
<style type="text/css">
	.st0{fill:#FFFFFF;}
</style>
<g>
	<path class="st0" d="M192.45,204.89c-14.94-6.78-13.63-28.67-15.95-40.2c-2.36-11.72-3.83-23.72-2.22-36.1
		c4.42-33.98,36.43-51.9,66.56-40.27c16.21,6.25,32.2,11.43,49.57,6.64c7.17-1.98,13.86-5.93,21.09-7.45
		c13.09-2.75,26.44-4.47,39.15,2.14c12.51,6.5,20.64,16.78,24.13,30.21c7.49,28.73,0.15,55.49-12.05,81.41
		c-0.44,0.93-1.08,2.18-2.29,3.62c-4.18-8.45-5.97-17.88-10.22-25.82c-3.98-7.45-9.87-12.65-15.34-18.49
		c-1.64-1.76-3.98-2.99-4.34-5.68c-2.35-17.95-15.16-26.15-30.39-30.91c-21.95-6.86-43.62-5.95-63.58,6.85
		c-8.19,5.25-14.63,12.2-15.14,22.73c-0.14,2.85-1.89,4.38-3.69,5.99c-7.74,6.98-14.31,14.94-18.64,24.4
		C197.07,188.46,195.18,197.8,192.45,204.89z"/>
	<path class="st0" d="M354.2,207.82c-2.21-9.21-6.23-17.23-10.32-25.73c-9.59-19.97-26.09-28.76-45.05-36.31
		c-1.41,9.93-0.99,16.74,8.74,22.8c19.6,12.21,28.82,35.23,20.85,60.77c-6.04,19.36-22.41,28.22-39.26,32.51
		c-13.91,3.54-29.66,1.65-43.44-6.43c-22.9-13.44-31.77-38.55-22.16-62.95c4.86-12.33,13.9-20.48,24.41-27.62
		c4.11-2.8,7.02-13.49,3.89-16.49c-4.24-4.05-6.42,2.66-10.03,3.25c-1.82,0.3-3.55,1.27-5.27,2.04
		c-30.34,13.48-45.04,48.01-39.65,76.96c6.13,32.94,27.04,53.9,59.32,62.08c30.89,7.82,58.09-1.13,79.47-24.18"/>
	<path class="st0" d="M325.97,212.87c0.04-11.32-4.03-20.13-9.54-28.61c-2.24-3.44-4.46-3.72-7.27-1.65
		c-5.34,3.94-11.5,5.54-17.85,6.05c-16.72,1.33-33.69,4.11-49.11-5.86c-3.45-2.23-5.8-2.32-8.31,2.08
		c-3.66,6.42-6.73,12.94-8.26,20.14c-4.23,19.98,4.99,33.5,24.79,36.89c5.38,0.92,10.73,1.21,16.15,1.33
		c13.81,0.3,38.68-1.41,41.17-2.81C325.97,234.43,325.97,212.87,325.97,212.87z"/>
	<path class="st0" d="M293.26,153.92c-0.03,9.97-7.6,17.58-17.45,17.55c-10.08-0.04-17.98-7.54-18.03-17.14
		c-0.06-10.12,8.12-18.31,18.06-18.07C285.9,136.5,293.29,144,293.26,153.92z"/>
	<path class="st0" d="M335.71,268.51"/>
	<path class="st0" d="M354.2,207.82"/>
</g>
<path class="st0" d="M354.2,207.82c0,0,9.31,30.35-18.5,60.69"/>
</svg>
